<svg width="202" height="96" viewBox="0 0 202 96" fill="none" xmlns="http://www.w3.org/2000/svg">
<g clip-path="url(#clip0_58_490)">
<rect x="2.12118" y="0.0183639" width="19.3967" height="59.7109" rx="9.69836" transform="matrix(0.713181 -0.70098 0.700937 0.713223 29.6663 20.6919)" fill="#C5B1FF" stroke="#8053FF" stroke-width="3"/>
<rect x="-0.018365" y="2.12131" width="19.3967" height="59.7108" rx="9.69837" transform="matrix(0.700937 0.713223 -0.713181 0.70098 74.4888 33.2143)" fill="#C5B1FF" stroke="#8053FF" stroke-width="3"/>
<rect x="2.12124" y="47.7913" width="19.3967" height="59.7109" rx="9.69836" transform="rotate(-44.504 2.12124 47.7913)" fill="url(#paint0_linear_58_490)" stroke="#8053FF" stroke-width="3"/>
<rect x="-0.018365" y="2.12131" width="19.3967" height="59.7108" rx="9.69837" transform="matrix(0.700937 0.713223 -0.713181 0.70098 46.2315 4.46138)" fill="url(#paint1_linear_58_490)" stroke="#8053FF" stroke-width="3"/>
<path d="M120.323 43.768C120.323 45.0693 120.024 46.264 119.427 47.352C118.829 48.4187 117.912 49.2827 116.675 49.944C115.437 50.6053 113.901 50.936 112.067 50.936H108.675V59H103.203V36.536H112.067C113.859 36.536 115.373 36.8453 116.611 37.464C117.848 38.0827 118.776 38.936 119.395 40.024C120.013 41.112 120.323 42.36 120.323 43.768ZM111.651 46.584C112.696 46.584 113.475 46.3387 113.987 45.848C114.499 45.3573 114.755 44.664 114.755 43.768C114.755 42.872 114.499 42.1787 113.987 41.688C113.475 41.1973 112.696 40.952 111.651 40.952H108.675V46.584H111.651ZM125.924 39.288C124.964 39.288 124.174 39.0107 123.556 38.456C122.958 37.88 122.66 37.176 122.66 36.344C122.66 35.4907 122.958 34.7867 123.556 34.232C124.174 33.656 124.964 33.368 125.924 33.368C126.862 33.368 127.63 33.656 128.228 34.232C128.846 34.7867 129.156 35.4907 129.156 36.344C129.156 37.176 128.846 37.88 128.228 38.456C127.63 39.0107 126.862 39.288 125.924 39.288ZM128.644 41.144V59H123.172V41.144H128.644ZM138.081 35.32V59H132.609V35.32H138.081ZM150.175 59.256C148.425 59.256 146.847 58.8827 145.439 58.136C144.052 57.3893 142.953 56.3227 142.143 54.936C141.353 53.5493 140.959 51.928 140.959 50.072C140.959 48.2373 141.364 46.6267 142.174 45.24C142.985 43.832 144.095 42.7547 145.503 42.008C146.911 41.2613 148.489 40.888 150.239 40.888C151.988 40.888 153.567 41.2613 154.975 42.008C156.383 42.7547 157.492 43.832 158.303 45.24C159.113 46.6267 159.519 48.2373 159.519 50.072C159.519 51.9067 159.103 53.528 158.271 54.936C157.46 56.3227 156.34 57.3893 154.911 58.136C153.503 58.8827 151.924 59.256 150.175 59.256ZM150.175 54.52C151.22 54.52 152.105 54.136 152.831 53.368C153.577 52.6 153.951 51.5013 153.951 50.072C153.951 48.6427 153.588 47.544 152.863 46.776C152.159 46.008 151.284 45.624 150.239 45.624C149.172 45.624 148.287 46.008 147.583 46.776C146.879 47.5227 146.527 48.6213 146.527 50.072C146.527 51.5013 146.868 52.6 147.551 53.368C148.255 54.136 149.129 54.52 150.175 54.52ZM172.374 54.36V59H169.59C167.606 59 166.059 58.52 164.95 57.56C163.84 56.5787 163.286 54.9893 163.286 52.792V45.688H161.11V41.144H163.286V36.792H168.758V41.144H172.342V45.688H168.758V52.856C168.758 53.3893 168.886 53.7733 169.142 54.008C169.398 54.2427 169.824 54.36 170.422 54.36H172.374ZM180.894 36.536V59H175.422V36.536H180.894ZM201.019 36.536V40.92H195.067V59H189.595V40.92H183.643V36.536H201.019Z" fill="#8053FF"/>
</g>
<defs>
<linearGradient id="paint0_linear_58_490" x1="11.1984" y1="47.7729" x2="11.1984" y2="110.484" gradientUnits="userSpaceOnUse">
<stop stop-color="#C5B1FF"/>
<stop offset="0.427083" stop-color="#D0C0FD"/>
<stop offset="1" stop-color="#F5F4F5"/>
</linearGradient>
<linearGradient id="paint1_linear_58_490" x1="11.1984" y1="0" x2="11.1984" y2="62.7108" gradientUnits="userSpaceOnUse">
<stop stop-color="#8053FF"/>
<stop offset="1" stop-color="#8053FF"/>
</linearGradient>
<clipPath id="clip0_58_490">
<rect width="202" height="96" fill="white"/>
</clipPath>
</defs>
</svg>
