<svg width="209" height="209" viewBox="0 0 209 209" fill="none" xmlns="http://www.w3.org/2000/svg">
<path fill-rule="evenodd" clip-rule="evenodd" d="M208.79 104.4C208.79 162.06 162.06 208.8 104.38 208.8C46.72 208.8 0 162.06 0 104.4C0 46.74 46.72 0 104.38 0C162.06 0 208.79 46.74 208.79 104.4Z" fill="#F07E20"/>
<path d="M117.27 67V104.43H104.35V68.83C104.35 64.6 103.23 61.23 101 58.71C98.7599 56.19 95.7299 54.93 91.9199 54.93C88.0199 54.93 84.8499 56.17 82.4099 58.65C79.9699 61.13 78.7499 64.32 78.7499 68.22V104.43H65.9499V68.83C65.9499 64.69 64.8099 61.34 62.5299 58.77C60.2499 56.21 57.2099 54.93 53.3899 54.93C49.4899 54.93 46.3199 56.21 43.8799 58.77C41.4499 61.33 40.2199 64.68 40.2199 68.83V104.43H27.4199V44.57H39.3699V50.18C43.8399 45.54 49.6099 43.23 56.6799 43.23C64.9699 43.23 71.0199 46.36 74.8399 52.62C79.6299 46.36 86.3799 43.23 95.0799 43.23C101.91 43.23 107.31 45.41 111.29 49.75C115.27 54.1 117.27 59.85 117.27 67Z" fill="white"/>
<path d="M127.53 99.77C123.77 96.18 121.9 91.7 121.9 86.31C121.9 80.93 123.77 76.4 127.53 72.74C131.28 69.07 135.85 67.23 141.23 67.23C146.61 67.23 151.1 69.03 154.69 72.61C158.27 76.2 160.07 80.77 160.07 86.31C160.07 91.69 158.28 96.18 154.69 99.77C151.1 103.36 146.62 105.15 141.23 105.15C135.84 105.15 131.27 103.35 127.53 99.77Z" fill="white"/>
<path d="M61.87 161.99H51.01L36.98 142.67V161.99H27.46V109.11H36.98V141.97L49.53 127.09H60.81L47.7 142.53L61.87 161.99Z" fill="white"/>
<path d="M63.8398 114.4C63.8398 112.71 64.4298 111.3 65.5998 110.17C66.7698 109.04 68.2098 108.48 69.8998 108.48C71.5898 108.48 73.0398 109.04 74.2398 110.17C75.4398 111.3 76.0398 112.71 76.0398 114.4C76.0398 116.05 75.4398 117.43 74.2398 118.56C73.0398 119.69 71.5998 120.25 69.8998 120.25C68.1998 120.25 66.7698 119.68 65.5998 118.56C64.4298 117.43 63.8398 116.05 63.8398 114.4ZM65.1798 127.09H74.6999V161.99H65.1798V127.09Z" fill="white"/>
<path d="M107.76 109.11H117.28V161.98H108.54V157.68C106.14 161.11 102.41 162.83 97.3299 162.83C92.4399 162.83 88.3999 161.1 85.2099 157.65C82.0099 154.19 80.4199 149.84 80.4199 144.57C80.4199 139.31 82.0199 134.95 85.2099 131.49C88.3999 128.04 92.4499 126.31 97.3299 126.31C101.75 126.31 105.22 127.7 107.76 130.47V109.11ZM105.4 151.62C107.07 149.93 107.9 147.58 107.9 144.57C107.9 141.56 107.05 139.2 105.36 137.49C103.67 135.78 101.58 134.92 99.0799 134.92C96.4999 134.92 94.3399 135.81 92.6299 137.6C90.9099 139.39 90.0599 141.69 90.0599 144.51C90.0599 147.38 90.9099 149.7 92.5999 151.49C94.2899 153.28 96.4499 154.17 99.0899 154.17C101.62 154.16 103.73 153.32 105.4 151.62Z" fill="white"/>
<path d="M121.79 156.07L126.58 150.29C129.59 153.44 132.85 155.01 136.38 155.01C137.7 155.01 138.76 154.76 139.59 154.27C140.41 153.78 140.82 153.06 140.82 152.12C140.82 151.41 140.57 150.86 140.08 150.46C139.59 150.06 138.63 149.56 137.22 148.94L133.48 147.39C130.14 146.03 127.72 144.54 126.22 142.91C124.72 141.29 123.97 139.23 123.97 136.74C123.97 133.5 125.14 130.95 127.49 129.09C129.84 127.24 132.94 126.31 136.8 126.31C141.97 126.31 146.15 128.05 149.35 131.53L144.56 137.38C142.21 135.17 139.6 134.07 136.74 134.07C134.25 134.07 133 134.89 133 136.54C133 137.2 133.26 137.74 133.77 138.16C134.29 138.58 135.25 139.08 136.66 139.64L140.04 141.05C143.52 142.46 146.02 143.97 147.55 145.56C149.08 147.16 149.84 149.2 149.84 151.69C149.84 155.17 148.55 157.89 145.96 159.87C143.42 161.84 140.18 162.83 136.23 162.83C129.99 162.83 125.17 160.58 121.79 156.07Z" fill="white"/>
<path fill-rule="evenodd" clip-rule="evenodd" d="M142.15 60.7601C142.9 57.7601 143.57 54.7401 144.43 51.7701C146.21 45.5701 148.04 39.3901 149.96 33.2301C150.47 31.6101 150.4 29.4701 153.17 28.8301C150.12 37.6501 147.18 46.1601 144.02 55.2901C153.64 46.1401 163.09 37.9101 174.76 32.8501C175.04 33.1101 175.3 33.3801 175.58 33.6501C174.64 34.9301 173.83 36.3601 172.73 37.4901C164.92 45.6101 156.22 52.5901 146.07 57.6101C144.48 58.3901 142.56 58.5201 142.09 60.6701L142.15 60.7601Z" fill="#07903A"/>
<path fill-rule="evenodd" clip-rule="evenodd" d="M142.1 60.6699C141.74 61.6899 141.36 62.7099 140.99 63.7599C135.39 58.6899 126.9 28.8599 130.09 23.6699C131.61 26.6899 133.26 29.2799 134.28 32.0999C137.43 40.8399 140.39 49.6499 141.29 58.9899C141.35 59.5999 141.86 60.1599 142.16 60.7499C142.15 60.7599 142.1 60.6699 142.1 60.6699Z" fill="#07903A"/>
</svg>
